<svg xmlns="http://www.w3.org/2000/svg" width="8pt" height="8pt" viewBox="0 0 8 8"><path d="M5.29 4.566c-.485 0-.72.243-1.513.243-.793 0-1.023-.243-1.511-.243C1.012 4.566 0 5.473 0 6.586v.387c0 .398.363.718.813.718h5.933c.45 0 .809-.32.809-.718v-.387c0-1.113-1.012-2.02-2.266-2.02zm1.456 2.407H.812v-.387c0-.715.653-1.297 1.454-1.297.25 0 .648.238 1.511.238.871 0 1.266-.238 1.512-.238.8 0 1.457.582 1.457 1.297zM3.777 4.328c1.344 0 2.426-.973 2.426-2.164C6.203.97 5.121 0 3.777 0c-1.34 0-2.43.969-2.43 2.164 0 1.191 1.09 2.164 2.43 2.164zm0-3.605c.891 0 1.621.648 1.621 1.441s-.73 1.441-1.62 1.441c-.895 0-1.618-.648-1.618-1.44 0-.794.723-1.442 1.617-1.442zm0 0" fill="#fff" id="surface1"/></svg>