<svg xmlns="http://www.w3.org/2000/svg" width="8pt" height="12" viewBox="0 0 8 9"><path fill="#fff" d="M2.645 5.063H1.93a.213.213 0 01-.215-.211v-.704c0-.117.097-.21.215-.21h.715a.21.21 0 01.21.21v.704a.21.21 0 01-.21.21zm1.925-.211v-.704a.21.21 0 00-.215-.21h-.71a.21.21 0 00-.215.21v.704c0 .117.093.21.215.21h.71a.21.21 0 00.215-.21zm1.715 0v-.704a.213.213 0 00-.215-.21h-.715a.21.21 0 00-.21.21v.704c0 .117.093.21.21.21h.715a.213.213 0 00.215-.21zM4.57 6.539v-.703a.21.21 0 00-.215-.211h-.71a.21.21 0 00-.215.21v.704a.21.21 0 00.215.211h.71a.21.21 0 00.215-.21zm-1.715 0v-.703a.21.21 0 00-.21-.211H1.93a.213.213 0 00-.215.21v.704c0 .117.097.211.215.211h.715a.21.21 0 00.21-.21zm3.43 0v-.703a.213.213 0 00-.215-.211h-.715a.21.21 0 00-.21.21v.704a.21.21 0 00.21.211h.715a.213.213 0 00.215-.21zM8 1.97v6.187A.85.85 0 017.145 9H.855A.85.85 0 010 8.156V1.97a.85.85 0 01.855-.844h.86V.211c0-.117.097-.211.215-.211h.715a.21.21 0 01.21.21v.915h2.29V.211A.21.21 0 015.355 0h.715c.117 0 .215.094.215.21v.915h.86A.85.85 0 018 1.969zm-.855 6.08V2.812H.855v5.239c0 .058.051.105.11.105h6.07c.059 0 .11-.047.11-.105zm0 0"/></svg>