<svg id="Группа_1" data-name="Группа 1" xmlns="http://www.w3.org/2000/svg" width="52" height="52"><rect x="1" y="1" width="50" height="50" rx="5" ry="5" fill="none" stroke="#a3bbc8" stroke-width="2" opacity=".2"/><path d="M1460.7 1330.53h-16.94l.1-2.86a.3.3 0 00.08-.2.323.323 0 00-.08-.21l-.18-.17a.267.267 0 00-.4 0l-4.2 4.21a.3.3 0 00-.08.2.323.323 0 00.08.21l4.2 4.21a.29.29 0 00.4 0l.18-.17a.323.323 0 00.08-.21.3.3 0 00-.08-.2l-.12-2.86h16.97a.3.3 0 00.29-.3v-1.37a.291.291 0 00-.3-.28z" transform="translate(-1424 -1305)" fill="#a3bbc8" fill-rule="evenodd"/></svg>