<svg id="Группа_2" data-name="Группа 2" xmlns="http://www.w3.org/2000/svg" width="52" height="52"><rect x="1" y="1" width="50" height="50" rx="5" ry="5" fill="none" stroke="#a3bbc8" stroke-width="2"/><path d="M1509.3 1332.47h16.94l-.1 2.86a.3.3 0 00-.08.2.323.323 0 00.08.21l.18.17a.267.267 0 00.4 0l4.2-4.21a.3.3 0 00.08-.2.323.323 0 00-.08-.21l-4.2-4.21a.29.29 0 00-.4 0l-.18.17a.323.323 0 00-.08.21.318.318 0 00.08.2l.12 2.86h-16.97a.3.3 0 00-.29.3v1.37a.291.291 0 00.3.28z" transform="translate(-1494 -1305)" fill="#a3bbc8" fill-rule="evenodd"/></svg>