<svg xmlns="http://www.w3.org/2000/svg" xmlns:xlink="http://www.w3.org/1999/xlink" width="10pt" height="11pt" viewBox="0 0 10 11" version="1.1">
<path fill="#526278" d="M 4.253906 1.4375 L 4.746094 0.960938 C 4.957031 0.757812 5.296875 0.757812 5.503906 0.960938 L 9.84375 5.132812 C 10.054688 5.335938 10.054688 5.664062 9.84375 5.863281 L 5.503906 10.039062 C 5.292969 10.242188 4.957031 10.242188 4.746094 10.039062 L 4.253906 9.5625 C 4.039062 9.359375 4.042969 9.027344 4.261719 8.824219 L 6.949219 6.359375 L 0.535156 6.359375 C 0.238281 6.359375 0 6.128906 0 5.84375 L 0 5.15625 C 0 4.871094 0.238281 4.640625 0.535156 4.640625 L 6.949219 4.640625 L 4.261719 2.175781 C 4.042969 1.972656 4.039062 1.640625 4.253906 1.4375 Z M 4.253906 1.4375 "/>
</svg>
