<?xml version="1.0" encoding="UTF-8"?>
<svg xmlns="http://www.w3.org/2000/svg" xmlns:xlink="http://www.w3.org/1999/xlink" width="8pt" height="8pt" viewBox="0 0 8 8" version="1.1">
<g id="surface1">
<path style=" stroke:none;fill-rule:nonzero;fill:rgb(100%,100%,100%);fill-opacity:1;" d="M 5.289062 4.566406 C 4.804688 4.566406 4.570312 4.808594 3.777344 4.808594 C 2.984375 4.808594 2.753906 4.566406 2.265625 4.566406 C 1.011719 4.566406 0 5.472656 0 6.585938 L 0 6.972656 C 0 7.371094 0.363281 7.691406 0.8125 7.691406 L 6.746094 7.691406 C 7.195312 7.691406 7.554688 7.371094 7.554688 6.972656 L 7.554688 6.585938 C 7.554688 5.472656 6.542969 4.566406 5.289062 4.566406 Z M 6.746094 6.972656 L 0.8125 6.972656 L 0.8125 6.585938 C 0.8125 5.871094 1.464844 5.289062 2.265625 5.289062 C 2.515625 5.289062 2.914062 5.527344 3.777344 5.527344 C 4.648438 5.527344 5.042969 5.289062 5.289062 5.289062 C 6.089844 5.289062 6.746094 5.871094 6.746094 6.585938 Z M 3.777344 4.328125 C 5.121094 4.328125 6.203125 3.355469 6.203125 2.164062 C 6.203125 0.96875 5.121094 0 3.777344 0 C 2.4375 0 1.347656 0.96875 1.347656 2.164062 C 1.347656 3.355469 2.4375 4.328125 3.777344 4.328125 Z M 3.777344 0.722656 C 4.667969 0.722656 5.398438 1.371094 5.398438 2.164062 C 5.398438 2.957031 4.667969 3.605469 3.777344 3.605469 C 2.882812 3.605469 2.160156 2.957031 2.160156 2.164062 C 2.160156 1.371094 2.882812 0.722656 3.777344 0.722656 Z M 3.777344 0.722656 "/>
</g>
</svg>
