<?xml version="1.0" encoding="UTF-8"?>
<svg xmlns="http://www.w3.org/2000/svg" xmlns:xlink="http://www.w3.org/1999/xlink" width="8pt" height="8pt" viewBox="0 0 8 8" version="1.1">
<g id="surface1">
<path style=" stroke:none;fill-rule:nonzero;fill:rgb(100%,100%,100%);fill-opacity:1;" d="M 0 6.972656 C 0 7.371094 0.363281 7.691406 0.8125 7.691406 L 6.746094 7.691406 C 7.195312 7.691406 7.554688 7.371094 7.554688 6.972656 L 7.554688 2.882812 L 0 2.882812 Z M 5.398438 4.027344 C 5.398438 3.925781 5.488281 3.847656 5.597656 3.847656 L 6.269531 3.847656 C 6.386719 3.847656 6.476562 3.925781 6.476562 4.027344 L 6.476562 4.628906 C 6.476562 4.726562 6.386719 4.808594 6.269531 4.808594 L 5.597656 4.808594 C 5.488281 4.808594 5.398438 4.726562 5.398438 4.628906 Z M 5.398438 5.949219 C 5.398438 5.851562 5.488281 5.769531 5.597656 5.769531 L 6.269531 5.769531 C 6.386719 5.769531 6.476562 5.851562 6.476562 5.949219 L 6.476562 6.550781 C 6.476562 6.648438 6.386719 6.730469 6.269531 6.730469 L 5.597656 6.730469 C 5.488281 6.730469 5.398438 6.648438 5.398438 6.550781 Z M 3.238281 4.027344 C 3.238281 3.925781 3.328125 3.847656 3.441406 3.847656 L 4.117188 3.847656 C 4.226562 3.847656 4.316406 3.925781 4.316406 4.027344 L 4.316406 4.628906 C 4.316406 4.726562 4.226562 4.808594 4.117188 4.808594 L 3.441406 4.808594 C 3.328125 4.808594 3.238281 4.726562 3.238281 4.628906 Z M 3.238281 5.949219 C 3.238281 5.851562 3.328125 5.769531 3.441406 5.769531 L 4.117188 5.769531 C 4.226562 5.769531 4.316406 5.851562 4.316406 5.949219 L 4.316406 6.550781 C 4.316406 6.648438 4.226562 6.730469 4.117188 6.730469 L 3.441406 6.730469 C 3.328125 6.730469 3.238281 6.648438 3.238281 6.550781 Z M 1.078125 4.027344 C 1.078125 3.925781 1.167969 3.847656 1.28125 3.847656 L 1.957031 3.847656 C 2.066406 3.847656 2.160156 3.925781 2.160156 4.027344 L 2.160156 4.628906 C 2.160156 4.726562 2.066406 4.808594 1.957031 4.808594 L 1.28125 4.808594 C 1.167969 4.808594 1.078125 4.726562 1.078125 4.628906 Z M 1.078125 5.949219 C 1.078125 5.851562 1.167969 5.769531 1.28125 5.769531 L 1.957031 5.769531 C 2.066406 5.769531 2.160156 5.851562 2.160156 5.949219 L 2.160156 6.550781 C 2.160156 6.648438 2.066406 6.730469 1.957031 6.730469 L 1.28125 6.730469 C 1.167969 6.730469 1.078125 6.648438 1.078125 6.550781 Z M 6.746094 0.960938 L 5.9375 0.960938 L 5.9375 0.242188 C 5.9375 0.109375 5.8125 0 5.667969 0 L 5.125 0 C 4.980469 0 4.855469 0.109375 4.855469 0.242188 L 4.855469 0.960938 L 2.699219 0.960938 L 2.699219 0.242188 C 2.699219 0.109375 2.574219 0 2.429688 0 L 1.890625 0 C 1.738281 0 1.617188 0.109375 1.617188 0.242188 L 1.617188 0.960938 L 0.8125 0.960938 C 0.363281 0.960938 0 1.28125 0 1.683594 L 0 2.402344 L 7.554688 2.402344 L 7.554688 1.683594 C 7.554688 1.28125 7.195312 0.960938 6.746094 0.960938 Z M 6.746094 0.960938 "/>
</g>
</svg>
