<svg xmlns="http://www.w3.org/2000/svg" xmlns:xlink="http://www.w3.org/1999/xlink" width="8pt" height="9pt" viewBox="0 0 8 9" version="1.1"><path fill="#fff" d="M 2.644531 5.0625 L 1.929688 5.0625 C 1.8125 5.0625 1.714844 4.96875 1.714844 4.851562 L 1.714844 4.148438 C 1.714844 4.03125 1.8125 3.9375 1.929688 3.9375 L 2.644531 3.9375 C 2.761719 3.9375 2.855469 4.03125 2.855469 4.148438 L 2.855469 4.851562 C 2.855469 4.96875 2.761719 5.0625 2.644531 5.0625 Z M 4.570312 4.851562 L 4.570312 4.148438 C 4.570312 4.03125 4.476562 3.9375 4.355469 3.9375 L 3.644531 3.9375 C 3.523438 3.9375 3.429688 4.03125 3.429688 4.148438 L 3.429688 4.851562 C 3.429688 4.96875 3.523438 5.0625 3.644531 5.0625 L 4.355469 5.0625 C 4.476562 5.0625 4.570312 4.96875 4.570312 4.851562 Z M 6.285156 4.851562 L 6.285156 4.148438 C 6.285156 4.03125 6.1875 3.9375 6.070312 3.9375 L 5.355469 3.9375 C 5.238281 3.9375 5.144531 4.03125 5.144531 4.148438 L 5.144531 4.851562 C 5.144531 4.96875 5.238281 5.0625 5.355469 5.0625 L 6.070312 5.0625 C 6.1875 5.0625 6.285156 4.96875 6.285156 4.851562 Z M 4.570312 6.539062 L 4.570312 5.835938 C 4.570312 5.71875 4.476562 5.625 4.355469 5.625 L 3.644531 5.625 C 3.523438 5.625 3.429688 5.71875 3.429688 5.835938 L 3.429688 6.539062 C 3.429688 6.65625 3.523438 6.75 3.644531 6.75 L 4.355469 6.75 C 4.476562 6.75 4.570312 6.65625 4.570312 6.539062 Z M 2.855469 6.539062 L 2.855469 5.835938 C 2.855469 5.71875 2.761719 5.625 2.644531 5.625 L 1.929688 5.625 C 1.8125 5.625 1.714844 5.71875 1.714844 5.835938 L 1.714844 6.539062 C 1.714844 6.65625 1.8125 6.75 1.929688 6.75 L 2.644531 6.75 C 2.761719 6.75 2.855469 6.65625 2.855469 6.539062 Z M 6.285156 6.539062 L 6.285156 5.835938 C 6.285156 5.71875 6.1875 5.625 6.070312 5.625 L 5.355469 5.625 C 5.238281 5.625 5.144531 5.71875 5.144531 5.835938 L 5.144531 6.539062 C 5.144531 6.65625 5.238281 6.75 5.355469 6.75 L 6.070312 6.75 C 6.1875 6.75 6.285156 6.65625 6.285156 6.539062 Z M 8 1.96875 L 8 8.15625 C 8 8.621094 7.617188 9 7.144531 9 L 0.855469 9 C 0.382812 9 0 8.621094 0 8.15625 L 0 1.96875 C 0 1.503906 0.382812 1.125 0.855469 1.125 L 1.714844 1.125 L 1.714844 0.210938 C 1.714844 0.09375 1.8125 0 1.929688 0 L 2.644531 0 C 2.761719 0 2.855469 0.09375 2.855469 0.210938 L 2.855469 1.125 L 5.144531 1.125 L 5.144531 0.210938 C 5.144531 0.09375 5.238281 0 5.355469 0 L 6.070312 0 C 6.1875 0 6.285156 0.09375 6.285156 0.210938 L 6.285156 1.125 L 7.144531 1.125 C 7.617188 1.125 8 1.503906 8 1.96875 Z M 7.144531 8.050781 L 7.144531 2.8125 L 0.855469 2.8125 L 0.855469 8.050781 C 0.855469 8.109375 0.90625 8.15625 0.964844 8.15625 L 7.035156 8.15625 C 7.09375 8.15625 7.144531 8.109375 7.144531 8.050781 Z M 7.144531 8.050781 "/></svg>
